<svg xmlns="http://www.w3.org/2000/svg" viewBox="0 0 512 512" width="512" height="512">
  <rect width="512" height="512" rx="100" fill="#0066a1"/>
  <g fill="white" transform="translate(256,256)">
    <ellipse cx="-60" cy="-80" rx="38" ry="52" transform="rotate(-25)"/>
    <ellipse cx="10" cy="-110" rx="28" ry="40" transform="rotate(-15)"/>
    <ellipse cx="70" cy="-120" rx="22" ry="32" transform="rotate(-5)"/>
    <ellipse cx="120" cy="-110" rx="18" ry="26" transform="rotate(5)"/>
    <path d="M-80,-30 Q-60,60 20,80 Q80,90 110,40 Q130,10 100,-20 Q70,-50 20,-40 Z"/>
    <ellipse cx="-80" cy="60" rx="38" ry="52" transform="rotate(25) translate(-10,20)"/>
    <ellipse cx="-10" cy="90" rx="28" ry="40" transform="rotate(15) translate(-5,15)"/>
    <ellipse cx="50" cy="100" rx="22" ry="32" transform="rotate(5) translate(0,10)"/>
    <ellipse cx="100" cy="90" rx="18" ry="26" transform="rotate(-5) translate(5,5)"/>
    <path d="M-100,110 Q-80,190 0,200 Q60,205 90,160 Q110,130 80,100 Q50,70 0,80 Z" transform="translate(-10,20)"/>
  </g>
</svg>
