<svg xmlns="http://www.w3.org/2000/svg" viewBox="0 0 512 512" width="512" height="512">
  <defs>
    <linearGradient id="bg" x1="0%" y1="0%" x2="100%" y2="100%">
      <stop offset="0%" stopColor="#0066a1"/>
      <stop offset="100%" stopColor="#00a8e8"/>
    </linearGradient>
  </defs>
  <rect width="512" height="512" rx="90" fill="url(#bg)"/>
  <g transform="translate(76, 112) scale(0.5625)">
    <path fill="white" d="M416 0C352.3 0 256 32 256 32l0 128c48 0 76 16 104 32s56 32 104 32c56.4 0 176-16 176-96S512 0 416 0zM128 96c0 35.3 28.7 64 64 64l32 0 0-128-32 0c-35.3 0-64 28.7-64 64zM288 512c96 0 224-48 224-128s-119.6-96-176-96c-48 0-76 16-104 32s-56 32-104 32l0 128s96.3 32 160 32zM0 416c0 35.3 28.7 64 64 64l32 0 0-128-32 0c-35.3 0-64 28.7-64 64z"/>
  </g>
</svg>
